/* XPM */
static const char *copy_xpm[] = {
/* columns rows colors chars-per-pixel */
"16 16 97 2",
")  c #646E78",
"S  c #F2F6F9",
"`  c #78818B",
";  c #0062CF",
"Y  c #26323D",
"2  c #005FCA",
"g  c #67727D",
"-  c #005CCA",
"B  c #5D6772",
",  c #FFFFFD",
"<  c #FFFFFE",
">  c #FFFFFF",
"*  c #0056C5",
"5  c #0053C4",
"F  c #EEF3F7",
"~  c #EEF3F8",
"N  c #606B78",
"a  c #0053C7",
"d  c #0053C8",
"E  c #F3F7FC",
"+  c #99DBFF",
"O. c #27333E",
"c  c #636F7B",
"}  c #5E6873",
"I  c #ECF0F4",
":  c #8D867F",
"b  c #F1F4F8",
"h  c #7C8085",
"#  c #1DAAFF",
"R  c #EAF0F5",
"A  c #F4F8FB",
"W  c #F4F8FC",
"k  c #70787E",
"$  c #18A3FF",
"r  c #E0DFE1",
"X. c #283440",
"o. c #2D3843",
".  c #0064CB",
"P  c #EDF1F5",
"q  c #6E7884",
"1  c #7D8186",
"o  c #005EC8",
"@  c #005ECB",
" . c #49535E",
"'  c #EBF1F7",
"/  c #F0F5FA",
"O  c #A0E1FF",
"j  c #FFFEF9",
"y  c #FFFEFB",
"w  c #0058C7",
"&  c #1CA8FF",
"!  c #EEF2F7",
"s  c #0052C6",
"0  c #F3F6F9",
"|  c #A1AAB2",
"T  c #4A545F",
"[  c #77818B",
"]  c #E5EBF2",
"(  c #EAEFF4",
"v  c #616B75",
"V  c #EFF3F7",
"Q  c #EFF3F8",
"C  c #F4F7FB",
"L  c #B6C1CA",
".. c #28333F",
"G  c #5F6B76",
"l  c #646F79",
"H  c #5F6872",
"t  c #DEDEE0",
"X  c #0060C9",
"e  c #EDE7E3",
"m  c #CDD5DD",
"i  c #005DCC",
"{  c #EBF0F7",
"9  c #F5F8FA",
"Z  c #F5F8FC",
"=  c #005AC8",
"3  c #005ACA",
"p  c #0054C4",
"6  c #0054C5",
"_  c #E9F0F7",
"4  c #0054C6",
"U  c #65707B",
"   c None",
"M  c #F3F5F8",
"7  c #0051C5",
"f  c #004EC8",
"D  c #F1F5F9",
"8  c #F6F9FA",
"^  c #F1F5FA",
"x  c #F6F9FB",
"K  c #B3BFC8",
"n  c #CCD3DD",
"%  c #18A4FF",
"u  c #6B7581",
"z  c #F4F6F9",
"J  c #EDF2F6",
/* pixels */
"    . X o o o X .               ",
"    X O + + + O X               ",
"    @ # $ % $ & * = = = = = - ; ",
"    : > , < , > > > > > > > > 1 ",
". 2 3 4 5 6 7 , 8 8 8 8 9 0 > q ",
"X O + + + O w e r r r r t y > u ",
"i # $ % $ & p a s s s s d f > g ",
"h > j y y > > > > > > > > k > l ",
"q > z 8 x x 8 8 8 8 9 0 > c > v ",
"u > b n m m m m m m n M > N > B ",
"g > V C Z Z Z Z A S D F > G > H ",
"l > J K L L L L K F P I > U Y T ",
"v > R E W Q ! ! ~ ^ / ( > )     ",
"B > _ ` ` ' ] ] ' ` [ { > }     ",
"H > > | | > > > > | | > > H     ",
" ...X.  o.X.O.O.X.o.  X...T     "
};
