/* XPM */
static const char *delete_trash_xpm[] = {
/* columns rows colors chars-per-pixel */
"16 16 79 1",
"m c #646E78",
"c c #69727E",
"= c #B9C4CF",
"R c #26323E",
"G c #F0F3F4",
"s c #76818B",
"d c #6C7682",
". c #717A85",
"O c #FFFFFF",
"! c #A8ACB1",
"h c #E4EBF1",
"; c #A6B2BE",
"L c #FF3300",
"< c #727E8A",
"P c #59616B",
"j c #9AA4B0",
"& c #C7D1D9",
"F c #C2CAD3",
"Y c #E0E8F1",
"C c #5C656F",
"@ c #EFF4FB",
"9 c #7F8A95",
"a c #B1BBC6",
"E c #28343F",
"T c #414B55",
", c #8C99A5",
": c #9BA8B4",
"> c #919DAA",
"o c #EBF1F8",
"w c #717C87",
"X c #F0F5FC",
"b c #FFFEFE",
"2 c #A3A7AD",
"U c #EEF5FA",
"I c #F8FDFF",
"N c #606A74",
"D c #565F69",
"y c #9CA6B2",
"M c #FFCCFF",
"l c #E2E7EC",
"n c #CA2900",
"B c #930000",
"g c #F1F3F4",
"8 c #818C97",
"5 c #959CA5",
"k c #D6DCE2",
"K c #FF2900",
"0 c #A2ABB6",
"t c #E8EFF5",
"S c #FF4C0C",
"7 c #87919B",
"# c #DCE4EB",
"A c #58616B",
"r c #F5F8F9",
"q c #7B8691",
"p c #94A0AB",
"Z c #FF6C14",
"3 c #9EA5AC",
"W c #293440",
"$ c #D5DDE6",
"  c None",
"v c #EEF1F3",
"1 c #DADBDD",
"- c #B0BBC7",
"* c #BFCAD4",
"f c #C4CBD4",
"z c #E2E6EB",
"4 c #9AA2A9",
"e c #C7CFD7",
"Q c #2A3540",
"V c #FF8320",
"6 c #8E979F",
"J c #98A2AE",
"i c #BBC7D4",
"% c #CFD7E0",
"H c #E3EAF0",
"x c #C5C9CD",
"u c #D9DFE6",
"+ c #CFD4DA",
/* pixels */
"     ....       ",
"    .XooX.      ",
" ............   ",
".OOOOOOOOOOO+.  ",
".@#$%&*=-;:>,.  ",
".<1234567890q.  ",
" wOertyuipa=s   ",
" dOfghjklOOzx   ",
" cOfghjvbnnOOnn ",
" mOfghjOnMMnnMMn",
" NOfghjOBVVMMVVB",
" COfghjvOBZZZZB ",
" AOfghjvOnSSSSn ",
" DOFGHJOnMKLLKMn",
" POOIUYOBKLBBLKB",
"  TREWQ!OBBO BB "
};
