/* XPM */
static const char *left_btn_xpm[] = {
/* columns rows colors chars-per-pixel */
"16 16 31 1",
"$ c #009804",
"# c #4FD13C",
"9 c #004600",
"4 c #6FD737",
"5 c #006300",
"2 c #6AD035",
". c #005D00",
": c #2BB017",
"o c #9FFF73",
"= c #009D06",
"; c #004500",
"6 c #6CD236",
"X c #FFFF00",
"> c #28B119",
"+ c #006500",
"3 c #6AD235",
"& c #019B03",
"- c #006200",
"O c #005F00",
"@ c #50D13C",
"7 c #005C00",
"1 c #66CC33",
", c #2CB017",
"0 c #004A00",
"* c #009905",
"q c #71D839",
"8 c #004400",
"< c #2FB418",
"  c None",
"w c #006400",
"% c #029B02",
/* pixels */
"                ",
"                ",
"     ..         ",
"    .X.         ",
"   .Xo.         ",
"  .Xoo.......O+ ",
" .X@@#XXXXXXXXO ",
".X$$%&*******=- ",
";:>:,,,,,,,,,<- ",
" ;1111233333345 ",
"  ;66678;;;;;90 ",
"   ;6q-         ",
"    ;6w         ",
"     ;;         ",
"                ",
"                "
};
