/* XPM */
static const char *new_task_xpm[] = {
/* columns rows colors chars-per-pixel */
"16 16 24 1",
"> c #614000",
"X c #FFFFFF",
"+ c #FFD400",
"$ c #FFF700",
"# c #6D4A00",
"% c #FFEB00",
"2 c #FFDF00",
": c #694700",
"; c #5F3F00",
"- c #FFDC00",
"< c #5A3800",
"O c #FFD900",
"5 c #FFFF00",
"= c #FFD600",
"o c #F2BE00",
"4 c #FFF000",
"@ c #FFA72A",
"& c #FFE400",
"* c #FFDE00",
". c #935D00",
"3 c #FFDB00",
"1 c #553600",
"  c None",
", c #5E3C00",
/* pixels */
"                ",
"         .      ",
"        ..      ",
"       .X.      ",
"      .Xo.      ",
"     .XO.       ",
"    .X+@.       ",
"   .XO@......#  ",
"  .X$%&*=+-@;   ",
" :>,<11.23@;    ",
"      .24@;     ",
"      .5@;      ",
"     .5@;       ",
"     .@;        ",
"     .;         ",
"     ;          "
};
