/* XPM */
static const char *new_directory_xpm[] = {
/* columns rows colors chars-per-pixel */
"16 16 79 1",
"W c #004900",
"o c #FFE7AE",
"r c #FFFFFF",
"2 c #D3A000",
"Y c #004000",
"m c #FFD400",
"e c #D8B03A",
"S c #28AF1B",
"H c #5D3A00",
"4 c #BF8A00",
"Z c #1CAD1E",
"T c #50D53E",
"p c #9E6800",
"B c #FFD108",
"< c #D19D00",
". c #946000",
"n c #FFD41B",
"b c #005D00",
"v c #FFCB00",
"1 c #D4A100",
"d c #FFC800",
"; c #EBB800",
"z c #FFD73B",
"K c #0EA20E",
"q c #CD9A00",
"C c #FFE500",
"8 c #FFE072",
"* c #E4B100",
"% c #986500",
", c #FFE083",
": c #ECB900",
"U c #004800",
"9 c #CB9700",
"J c #03A111",
"a c #D0AA3D",
"I c #17AE11",
"N c #FFFF00",
"! c #004200",
"i c #A06A00",
"0 c #CE9B00",
"7 c #966200",
"A c #FFD600",
"G c #5D3C00",
"k c #FFCA00",
"c c #FFD62B",
"= c #E6B300",
"+ c #FDCA00",
"j c #FFEB8C",
"L c #18A60E",
"5 c #C08A00",
"w c #CD9900",
"P c #1BAA0F",
"6 c #C38E00",
"# c #936000",
"Q c #2FBA1D",
"& c #FFE295",
"E c #004400",
"  c None",
"l c #FFD200",
"R c #32B51B",
"X c #946100",
"g c #FFCF00",
"t c #945E00",
"@ c #FFCC00",
"F c #7E5400",
"f c #FFC900",
"> c #F0BD00",
"u c #9C6600",
"D c #27BA23",
"h c #FFD845",
"O c #FDC900",
"y c #FFDE5F",
"s c #FFED92",
"3 c #D7A300",
"M c #FFED96",
"$ c #956200",
"V c #FFE600",
"- c #E9B600",
"x c #FFEA96",
/* pixels */
" ..XXXX         ",
".oO++@@#$$$$$%  ",
"#&*===-;::::>$  ",
"#,<11123455567  ",
"#8900qwerrrrrt  ",
"#yuiipasdfffg#  ",
"#hrrrrjk@@@@l#  ",
"#zffffk@@xrrrr  ",
"#cv@@@@@@rbbbb  ",
"#nmmmmmMrrbNNb  ",
"#BVCCCCrbbbNZbbb",
"7ANNNNNrbNNNSDNb",
"FGHHHHHrbNJKLPIb",
"        UYbTRbEW",
"          bNQb  ",
"          U!EW  "
};
