/* XPM */
static const char *refresh_xpm[] = {
/* columns rows colors chars-per-pixel */
"16 16 19 1",
"O c #53C52A",
"; c #006000",
"< c #55D639",
"& c #15A613",
"* c #005A00",
"X c #FFFF00",
": c #006200",
"% c #005F00",
"# c #16A613",
"o c #54D639",
"= c #54D63B",
"@ c #004700",
"+ c #004400",
"  c None",
"$ c #17A713",
". c #006100",
"> c #005E00",
"- c #005B00",
", c #005800",
/* pixels */
"      ..        ",
"     .X.   ..   ",
"    .Xo.  .XX.  ",
"   .XoO+ .XOOX. ",
"  .XoO@ .XO#$OX.",
"  %&&%  .@*=&-@.",
"  %&&%    ;o&:  ",
"  %&&%    >o&;  ",
"  %&&%    >o&;  ",
"  .&&>    >o&;  ",
"...&&,..  >o&;  ",
"@XO&&OX@ .X<&@  ",
" @XOOX@ .XO<@   ",
"  @XX@  .O<@    ",
"   @@   .<@     ",
"        .@      "
};
