/* XPM */
static const char *remote_file_xpm[] = {
/* columns rows colors chars-per-pixel */
"16 16 62 1",
"6 c #6E7984",
"v c #4EC127",
"s c #C3CCD7",
"z c #C5C6DB",
"j c #004600",
"k c #626B75",
"+ c #FFFFFF",
"d c #BCC5D0",
"l c #D0D8E0",
"$ c #DFE7ED",
"N c #CDCEE2",
"O c #83909C",
"S c #2C3742",
"n c #C9D1DB",
": c #DDE4EB",
"m c #F1F7FC",
"5 c #005D00",
"> c #77828D",
"* c #E5ECF1",
". c #7F8A96",
"p c #13A30A",
"= c #DEE5EB",
"r c #69747E",
"a c #646D77",
"9 c #FFFF00",
"w c #CBD3DC",
"e c #99FF66",
"% c #DFE6ED",
"; c #E4EAF1",
"c c #15AE08",
"X c #838F9C",
"i c #656E79",
"C c #4A545E",
"x c #0CAD00",
"1 c #727D89",
"B c #D0CEE5",
"b c #636B75",
"0 c #6D7681",
"Z c #2F3A45",
", c #B6C1CC",
"g c #68E93A",
"u c #25B219",
"A c #303B46",
"8 c #CDD5DE",
"# c #E1E8EE",
"q c #D2D9E2",
"2 c #717B86",
"& c #7B8693",
"V c #71D839",
"3 c #D5DDE4",
"  c None",
"< c #B0BBC6",
"f c #C1C4D9",
"4 c #CED6DE",
"o c #818E9B",
"M c #5E6670",
"h c #6EE843",
"t c #B8C3CE",
"@ c #EAF1F6",
"- c #7A8490",
"y c #B1BCC7",
"7 c #D4DBE4",
/* pixels */
" .XooooooO.     ",
".++++++++++.    ",
".@#$%%%%$#@.    ",
"&*========*&    ",
"-;::::::::;-    ",
">,<<<<<<<<,>    ",
"1+++++++++++    ",
"234444444+55    ",
"678888888+595   ",
"0qwwwwwww+5e95  ",
"rtyyyyyyy+5uu95 ",
"i+++++++++5ppp95",
"asddddfgh+5uuuj ",
"klylylzxc+5vvj  ",
"bnmMmMlNB+5Vj   ",
"CZAAAASSS+5j    "
};
