/* XPM */
static const char *right_btn_xpm[] = {
/* columns rows colors chars-per-pixel */
"16 16 30 1",
"6 c #4EC127",
"1 c #004600",
"; c #1EB01B",
"2 c #006300",
". c #005D00",
"= c #1FB11D",
"< c #0EA50C",
", c #13A30A",
"4 c #53C72A",
"o c #9DFF72",
"3 c #56CB2B",
"X c #FFFF00",
"O c #006500",
": c #006200",
"+ c #005F00",
"5 c #52C529",
"@ c #005600",
"7 c #004A00",
"- c #25B219",
"0 c #71D839",
"* c #1EB11D",
"8 c #004400",
"  c None",
"q c #006400",
"$ c #72E854",
"% c #006100",
"> c #15A70B",
"9 c #6DD236",
"& c #22B61F",
"# c #73E954",
/* pixels */
"                ",
"                ",
"         ..     ",
"         .X.    ",
"         .oX.   ",
" O+......@ooX.  ",
" +XXXXXXXX#$$X. ",
" %&******=--;-X.",
" :>,,,,,,,,,,<,1",
" 23444444566661 ",
" 71111118.9991  ",
"         :001   ",
"         q01    ",
"         11     ",
"                ",
"                "
};
