/* XPM */
static const char *search_xpm[] = {
/* columns rows colors chars-per-pixel */
"16 16 94 2",
"/  c #828F9C",
"`  c #5F6770",
"Z  c #A0AAB5",
"}  c #2B3642",
"(  c #8A97A3",
"A  c #717A83",
"X  c #FFFFFF",
"9  c #ADB6C0",
"O  c #C6CDD3",
"b  c #C6CDD4",
"k  c #CBD1D7",
"U  c #D0D5DA",
"g  c #DFE4E9",
"6  c #EEF0F3",
"B  c #C9CED4",
"]  c #FBFFFF",
"2  c #6D7783",
")  c #5E656E",
"v  c #DBE1E5",
"u  c #4D5660",
"w  c #707B85",
"p  c #525A64",
"y  c #6B747D",
"#  c #757F8A",
"|  c #28343F",
"{  c #464F59",
".  c #737F8B",
"G  c #5A626B",
"K  c #737C85",
"<  c #A0A9B3",
"4  c #CDD3D8",
"l  c #E1E6EA",
"Y  c #E6EAEE",
"j  c #67717B",
"z  c #9EA9B3",
"T  c #A3ADB8",
"S  c #565F68",
"0  c #8D9AA6",
"&  c #E4E7EA",
"J  c #5B636C",
">  c #6F7984",
"H  c #5B636D",
"!  c #606770",
"@  c #B5C0CB",
"M  c #A1AAB4",
"n  c #B0B9C3",
"N  c #E2E7EB",
",  c #818F9C",
"i  c #4F5861",
"Q  c #E7EBEF",
";  c #86939F",
"~  c #8693A0",
"m  c #95A2AD",
"_  c #636B74",
"c  c #F1F3F7",
"o  c #C7CDD3",
"^  c #7F8C99",
"D  c #576069",
"1  c #E5E8EA",
"E  c #666F78",
"3  c #707A84",
"*  c #9DA7B2",
"L  c #A2ABB5",
"%  c #C0C6CD",
":  c #8794A0",
"a  c #555D66",
"C  c #646C77",
"h  c #C8CED4",
"'  c #C8CED6",
"F  c #58616A",
"$  c #6C7783",
"x  c #B2BBC3",
"[  c #D0D9E1",
" . c #293440",
"   c None",
"s  c #565E67",
"d  c #6F7881",
"8  c #C4CBD1",
"P  c #C9CFD5",
"7  c #D8DEE2",
"V  c #68717B",
"5  c #A9B4BC",
"t  c #9AA5B0",
"W  c #A4ADB7",
".. c #2A3540",
"I  c #616A73",
"e  c #6B757F",
"+  c #75808B",
"-  c #6B7581",
"R  c #757D86",
"f  c #9DA6B1",
"q  c #CAD0D6",
"r  c #DEE3E8",
"=  c #7D8B98",
/* pixels */
"                                ",
"    . . .             . . .     ",
"    . X X .         . X X .     ",
"    . o O .         . o O .     ",
"  + . @ @ .         . @ @ . +   ",
"  + X X X X #     # X X X X +   ",
"  $ % & * = - ; : > , < 1 % 2   ",
"3 4 X X 5 X X 6 7 8 9 0 X X q w ",
"e q r t y u u i p a s d f g h e ",
"j k l z x X X c v b n m M N B V ",
"C k l Z A S D F G H J K L N P C ",
"I U Y T R E         E R W Q 4 I ",
"! ~ ^ / ( ) _     _ ) ( / ^ ~ ! ",
"` ' ' ] [ R !     ! R [ ] ' ' ` ",
"{ } |  ...{         { .. .| } { ",
"                                "
};
