/* XPM */
static const char *settings_xpm[] = {
/* columns rows colors chars-per-pixel */
"16 16 62 1",
"V c #737D87",
"z c #9BA3AC",
"b c #A0A7AE",
"@ c #BEC5CC",
"S c #D2DBE5",
"9 c #6C7984",
"O c #FFFFFF",
"s c #A8ACB0",
"C c #424D57",
"X c #83909C",
"n c #DADDE2",
"p c #747E89",
"= c #BFC6CD",
"Z c #636C76",
"w c #909CA9",
"M c #A9B0B6",
"f c #2F3B46",
"l c #D1D9E1",
"y c #B8BCBF",
"2 c #D1D9E3",
"r c #4D5660",
"t c #707B87",
"A c #666D77",
"c c #28343F",
"k c #B6BCC1",
"* c #505D67",
"7 c #78838E",
"3 c #DEDFDF",
"i c #535E69",
"6 c #2E3944",
"+ c #838F99",
"4 c #BAC4D1",
"d c #DDE3E8",
"1 c #E2E7EB",
", c #D3D8DF",
"0 c #D3D5D8",
"8 c #727D89",
"j c #A4A8AF",
"% c #E0E7ED",
"- c #F4F7F8",
"g c #28333E",
"u c #C5CDD6",
"& c #96A0A9",
"N c #B4BEC8",
"q c #B9C2C9",
"a c #D7E0E8",
": c #536069",
"x c #DCE1E4",
"o c #808D99",
"h c #4C5661",
"  c None",
". c #8895A1",
"# c #EEF1F6",
"; c #FDFDFC",
"m c #ABB1B7",
"B c #DDE5ED",
"e c #454F59",
"5 c #77838E",
"$ c #778390",
"> c #9DACBB",
"< c #EFEFEE",
"v c #E3E7EB",
/* pixels */
"      .XX.      ",
"   XX oOOo XX   ",
"  +@#$$%%$$#@&  ",
" *=#--O;;O--#=: ",
" :#>,<1221<,>#: ",
"  :3345665433:  ",
"7890qweOOrwq0987",
"tOOyuiOOOOiuyOOt",
"paasdiOOOOidsaap",
"fghjkjiOOijkjhgf",
"  hlzxjiijxzlh  ",
" clvlbnmmnblvlc ",
" cMlNlNBBNlNlMc ",
"  cVlCZBBZClVc  ",
"   cc ASSA cc   ",
"      cccc      "
};
