/* XPM */
static const char *up_level_xpm[] = {
/* columns rows colors chars-per-pixel */
"16 16 53 1",
"b c #002A91",
"n c #002A92",
"6 c #0062CB",
"< c #002A93",
"g c #7FC6FF",
"w c #005FC8",
"p c #CEF0FF",
"8 c #1BA2FF",
"* c #005CC8",
"O c #47B0FF",
"r c #CCF0FF",
"9 c #21A4FF",
"# c #00389C",
"x c #0064CD",
"l c #0099FF",
"s c #0061C9",
"% c #002992",
", c #00268E",
"> c #005EC8",
"3 c #1BA1FF",
"0 c #89CAFF",
"i c #0058C5",
"e c #87CAFF",
"o c #45AFFF",
"X c #DEFFFF",
"+ c #2DA8FF",
"t c #1CA2FF",
"2 c #CDF0FF",
"@ c #099CFF",
"- c #1FA3FF",
". c #0066CC",
"c c #002E94",
"k c #0066CD",
"= c #D5F2FF",
"v c #002B92",
"z c #8ED3FF",
"q c #0060C9",
"1 c #0060CB",
"& c #00258E",
"j c #20A4FF",
"7 c #005DC9",
"u c #0083D7",
"f c #82C8FF",
"4 c #23A5FF",
"  c None",
"; c #26A6FF",
"d c #88CDFF",
"5 c #88CAFF",
": c #8DCBFF",
"h c #7CC2FF",
"a c #1DA2FF",
"y c #0065CB",
"$ c #002D94",
/* pixels */
"        ..      ",
"       .XX.     ",
"      .XooX.    ",
"     .XOOOOX.   ",
"    .X++++++X.  ",
"   .X@@@@@@@@X. ",
"  #$%&*=-;:>,<$#",
"      123456    ",
"      72890q    ",
"      *2890w    ",
"      *289ew    ",
"      *rt9ew    ",
"yuuuuuipa9ew    ",
"sdffffgh9j5w    ",
"klllllllllzx    ",
"cvbbbbbbbbn     "
};
