/* XPM */
static const char *user_disable_xpm[] = {
/* columns rows colors chars-per-pixel */
"16 16 81 1",
"% c #C89400",
"< c #FFC00D",
"N c #737D88",
"J c #F2F3F4",
"> c #FFE000",
"8 c #FFA02F",
"z c #5C3600",
"1 c #FFDA00",
"p c #FFFFFF",
"K c #3785D5",
"5 c #FFD700",
"H c #E9EFF5",
"I c #6A737E",
"E c #FF3300",
"@ c #D19D00",
"; c #FFF400",
"e c #7E590E",
"6 c #FFCB00",
"S c #FBFCFC",
"+ c #D9A500",
"- c #FFEE00",
"w c #FFAB25",
"s c #FFAB2A",
"y c #FFC50B",
"= c #FFE500",
"F c #6E7882",
"$ c #C89300",
"3 c #FFE200",
"4 c #FFDF00",
"q c #FFBC10",
"U c #E6EDF4",
"L c #FAFAFA",
"g c #FFFEFE",
"B c #C6CFD8",
"7 c #FFB617",
"c c #79848F",
", c #FFD300",
"o c #D19F00",
". c #996600",
"* c #FFF600",
"f c #FFDAAB",
"x c #FFCCFF",
"h c #CA2900",
"m c #930000",
"C c #F6F7F7",
"G c #C7D0D9",
"v c #C7D0DA",
": c #FFED00",
"b c #EFF6FF",
"j c #7F8C98",
"R c #FF2900",
"P c #FF4C0C",
"A c #7EB1E4",
"d c #FFA432",
"2 c #FFE100",
"Q c #72ACE7",
"a c #704400",
"W c #EBEDF0",
"D c #FF6C14",
"~ c #293440",
"& c #C99600",
"9 c #FFD500",
"  c None",
"# c #C99300",
"0 c #FFD200",
"X c #D9AC00",
"O c #D19E00",
"r c #5B3B00",
"k c #B5A177",
"Y c #F6F6F6",
"i c #FFD6AD",
"u c #FFAC25",
"M c #FF8320",
"n c #1177E0",
"Z c #7BAFE4",
"l c #6D4800",
"! c #74AEE9",
"^ c #A7ABB0",
"t c #FFC30F",
"T c #0065CC",
"V c #E8EEF4",
/* pixels */
"   ......       ",
"  .XXoO++.      ",
" .@@#$%&OO.     ",
" .$***===$.     ",
" .$-;:>,<$.     ",
" .12345678.     ",
" .19906qw8e     ",
"  rty<7uip      ",
"   assdfghh  hh ",
"  jklzzphxxhhxxh",
" cvbpnnpmMMxxMMm",
" NBVCZASpmDDDDm ",
" FGHJKKLphPPPPh ",
" IGUYTTphxREERxh",
" FGUWQ!pmREmmERm",
"  ~~~~~^pmm  mm "
};
