/* XPM */
static const char *user_xpm[] = {
/* columns rows colors chars-per-pixel */
"16 16 73 1",
"X c Black",
"z c #737D88",
"C c #F2F3F4",
"8 c #CB9800",
"i c #5C3600",
"1 c #E2AF00",
"= c #C18D00",
"g c #FFFFFF",
"Z c #3785D5",
"* c #D8A400",
"V c #E9EFF5",
"p c #BCAA81",
"F c #6A737E",
"A c #F3F4F4",
"3 c #CC9900",
"0 c #C28E00",
"m c #EFF4FB",
"D c #757F89",
"9 c #433F3E",
"S c #F2F8FE",
"k c #A0AFBD",
"N c #6E7882",
"q c #C38F00",
"t c #AC7500",
"7 c #D5A200",
"e c #B98400",
"- c #F1BD00",
": c #ECB900",
"G c #E6EDF4",
"l c #808B96",
"K c #FAFAFA",
"$ c #FFD900",
"O c #2B1D00",
"x c #C6CFD8",
"s c #79848F",
"+ c #654403",
"v c #F6F7F7",
"B c #C7D0D9",
"d c #C7D0DA",
"f c #EFF6FF",
"y c #7F8C98",
"o c #2F2200",
", c #D7A400",
"4 c #B68200",
"> c #CD9900",
"a c #647282",
"n c #7EB1E4",
"< c #DFAC00",
"I c #72ACE7",
"P c #EBEDF0",
"r c #AF7800",
"; c #F4C000",
"Y c #293440",
"5 c #CE9A00",
"  c None",
"& c #E5B100",
"2 c #E0AD00",
"L c #6F7882",
"@ c #D6A200",
"j c #F6FCFF",
"u c #B5A177",
"H c #F6F6F6",
"% c #FAC500",
"h c #1177E0",
"b c #7BAFE4",
"# c #E6B200",
". c #6D4800",
"M c #7A8490",
"w c #C08C00",
"6 c #D29F00",
"U c #74AEE9",
"J c #0065CC",
"c c #E8EEF4",
/* pixels */
"     ......     ",
"    .XoXXOX.    ",
"   +XXXXXXXX+   ",
"   +@#$$%&*=+   ",
"   +@#-;:&*=+   ",
"   +>,<12,34+   ",
"   +>5676834+   ",
"    900qwwe9    ",
"     9rrtt9     ",
"    yu.ii.pa    ",
"   sdfghhgjkl   ",
"   zxcvbnvmkM   ",
"   NBVCZZASkD   ",
"   FBGHJJKSkL   ",
"   NBGPIUKSkN   ",
"    YYYYYYYY    "
};
